<?xml version="1.0" encoding="UTF-8" standalone="no"?>
<svg
   xmlns:dc="http://purl.org/dc/elements/1.1/"
   xmlns:cc="http://creativecommons.org/ns#"
   xmlns:rdf="http://www.w3.org/1999/02/22-rdf-syntax-ns#"
   xmlns:svg="http://www.w3.org/2000/svg"
   xmlns="http://www.w3.org/2000/svg"
   version="1.1"
   id="svg4968"
   viewBox="0 0 500.00001 500.00001"
   height="500"
   width="500">
  <defs
     id="defs4970" />
  <metadata
     id="metadata4973">
    <rdf:RDF>
      <cc:Work
         rdf:about="">
        <dc:format>image/svg+xml</dc:format>
        <dc:type
           rdf:resource="http://purl.org/dc/dcmitype/StillImage" />
        <dc:title></dc:title>
      </cc:Work>
    </rdf:RDF>
  </metadata>
  <g
     transform="translate(0,-552.36216)"
     id="layer1">
    <circle
       r="247.14285"
       transform="scale(1,-1)"
       cy="-802.36218"
       cx="250"
       id="path4314"
       style="opacity:1;fill:#00d000;fill-opacity:1;fill-rule:nonzero;stroke:none;stroke-width:5.6692915;stroke-miterlimit:4;stroke-dasharray:none;stroke-opacity:1" />
    <g
       id="text4171-6"
       style="font-style:normal;font-weight:normal;font-size:460.70840454px;line-height:125%;font-family:sans-serif;letter-spacing:0px;word-spacing:0px;fill:#ffffff;fill-opacity:1;stroke:none;stroke-width:1px;stroke-linecap:butt;stroke-linejoin:miter;stroke-opacity:1">
      <path
         id="path6675"
         style="fill:#ffffff"
         d="m 181.17017,765.87408 0,-131.5783 c 0,-7.7399 -4.97565,-11.057 -15.4798,-11.057 l -40.9109,0 c -14.3741,0 -21.56115,6.6342 -21.56115,19.34975 0,13.82125 7.7399,18.7969 24.87825,18.7969 3.86995,0 8.29275,0.55285 12.1627,0.55285 l 0,276.42502 c -2.2114,0 -3.86995,0 -5.5285,0 -22.114,0 -31.51245,3.3171 -31.51245,18.7969 0,12.71555 7.18705,19.34975 21.56115,19.34975 l 49.20365,0 c 8.29275,0 11.057,-4.4228 11.057,-13.82125 l 0,-21.56115 c 18.24406,27.08965 46.43941,40.35805 84.03321,40.35805 72.42335,0 127.70836,-56.94355 127.70836,-127.15551 0,-71.31765 -54.17931,-127.15551 -126.60266,-127.15551 -38.14665,0 -68.5534,13.2684 -89.00886,38.6995 z m 84.03321,173.04207 c -50.30935,0 -85.13891,-36.48811 -85.13891,-86.24461 0,-50.30935 35.38241,-86.24461 85.13891,-86.24461 50.30935,0 85.1389,37.04096 85.1389,86.24461 0,51.41505 -34.82955,86.24461 -85.1389,86.24461 z" />
    </g>
  </g>
</svg>
