<?xml version="1.0" encoding="UTF-8" standalone="no"?>
<!-- Created with Inkscape (http://www.inkscape.org/) -->

<svg
   xmlns:dc="http://purl.org/dc/elements/1.1/"
   xmlns:cc="http://creativecommons.org/ns#"
   xmlns:rdf="http://www.w3.org/1999/02/22-rdf-syntax-ns#"
   xmlns:svg="http://www.w3.org/2000/svg"
   xmlns="http://www.w3.org/2000/svg"
   xmlns:sodipodi="http://sodipodi.sourceforge.net/DTD/sodipodi-0.dtd"
   xmlns:inkscape="http://www.inkscape.org/namespaces/inkscape"
   width="1280"
   height="720"
   viewBox="0 0 1280.0001 720"
   id="svg4318"
   version="1.1"
   inkscape:version="0.91 r13725"
   sodipodi:docname="logo-banner.svg">
  <defs
     id="defs4320" />
  <sodipodi:namedview
     id="base"
     pagecolor="#ffffff"
     bordercolor="#666666"
     borderopacity="1.0"
     inkscape:pageopacity="0.0"
     inkscape:pageshadow="2"
     inkscape:zoom="0.49497475"
     inkscape:cx="293.35135"
     inkscape:cy="345.70284"
     inkscape:document-units="px"
     inkscape:current-layer="layer1"
     showgrid="false"
     units="px"
     inkscape:window-width="1920"
     inkscape:window-height="1056"
     inkscape:window-x="0"
     inkscape:window-y="24"
     inkscape:window-maximized="1" />
  <metadata
     id="metadata4323">
    <rdf:RDF>
      <cc:Work
         rdf:about="">
        <dc:format>image/svg+xml</dc:format>
        <dc:type
           rdf:resource="http://purl.org/dc/dcmitype/StillImage" />
        <dc:title></dc:title>
      </cc:Work>
    </rdf:RDF>
  </metadata>
  <g
     inkscape:label="Layer 1"
     inkscape:groupmode="layer"
     id="layer1"
     transform="translate(0,-332.36222)">
    <g
       style="font-style:normal;font-weight:normal;font-size:55.85585403px;line-height:125%;font-family:sans-serif;letter-spacing:0px;word-spacing:0px;fill:#ffffff;fill-opacity:1;stroke:none;stroke-width:1px;stroke-linecap:butt;stroke-linejoin:miter;stroke-opacity:1"
       id="text4171"
       transform="matrix(1.8985074,0,0,1.8985074,104.62099,-1245.8877)">
      <path
         d="m 7.6814473,1031.5574 c 0,3.3513 2.5470267,5.8313 6.4345937,5.8313 3.887568,0 6.434595,-2.4129 6.434595,-5.8313 0,-3.4184 -2.547027,-5.8314 -6.434595,-5.8314 -3.887567,0 -6.4345937,2.48 -6.4345937,5.8314 z m 0,-18.0973 c 0,3.3513 2.5470267,5.8313 6.4345937,5.8313 3.887568,0 6.434595,-2.4129 6.434595,-5.8313 0,-3.4184 -2.547027,-5.8314 -6.434595,-5.8314 -3.887567,0 -6.4345937,2.48 -6.4345937,5.8314 z"
         style="fill:#4d4d4d"
         id="path5687"
         inkscape:connector-curvature="0" />
      <path
         d="m 48.002389,1031.5574 c 0,3.3513 2.547027,5.8313 6.434594,5.8313 3.887568,0 6.434595,-2.4129 6.434595,-5.8313 0,-3.4184 -2.547027,-5.8314 -6.434595,-5.8314 -3.887567,0 -6.434594,2.48 -6.434594,5.8314 z m 0,-18.0973 c 0,3.3513 2.547027,5.8313 6.434594,5.8313 3.887568,0 6.434595,-2.4129 6.434595,-5.8313 0,-3.4184 -2.547027,-5.8314 -6.434595,-5.8314 -3.887567,0 -6.434594,2.48 -6.434594,5.8314 z"
         style="fill:#4d4d4d"
         id="path5689"
         inkscape:connector-curvature="0" />
      <path
         d="m 86.31252,1011.3823 0,-15.95247 c 0,-0.93838 -0.603243,-1.34054 -1.876756,-1.34054 l -4.96,0 c -1.742703,0 -2.614054,0.80432 -2.614054,2.34594 0,1.67568 0.938378,2.27892 3.016216,2.27892 0.469189,0 1.005406,0.067 1.474595,0.067 l 0,33.51355 c -0.268108,0 -0.469189,0 -0.670271,0 -2.68108,0 -3.82054,0.4022 -3.82054,2.2789 0,1.5416 0.871351,2.346 2.614054,2.346 l 5.965405,0 c 1.005405,0 1.340541,-0.5363 1.340541,-1.6757 l 0,-2.6141 c 2.211891,3.2844 5.63027,4.893 10.188107,4.893 8.780543,0 15.483243,-6.9038 15.483243,-15.4162 0,-8.6465 -6.56865,-15.4162 -15.349189,-15.4162 -4.624864,0 -8.311351,1.6086 -10.791351,4.6919 z m 10.188108,20.9794 c -6.099459,0 -10.322162,-4.4238 -10.322162,-10.4562 0,-6.0995 4.28973,-10.4562 10.322162,-10.4562 6.099462,0 10.322162,4.4908 10.322162,10.4562 0,6.2335 -4.2227,10.4562 -10.322162,10.4562 z"
         style="fill:#4d4d4d"
         id="path5691"
         inkscape:connector-curvature="0" />
      <path
         d="m 131.86157,1032.2947 0,-13.5395 c 4.35676,-4.96 8.04325,-7.574 11.66271,-7.574 2.54702,0 3.95459,2.0108 5.69729,2.0108 1.40757,0 2.88217,-1.4746 2.88217,-3.0833 0,-2.4129 -2.41298,-4.2227 -6.50163,-4.2227 -5.2281,0 -9.65189,2.5471 -13.74054,7.7082 l 0,-5.5633 c 0,-0.9384 -0.60324,-1.3405 -1.80973,-1.3405 l -7.44,0 c -1.7427,0 -2.61405,0.7373 -2.61405,2.2789 0,1.6757 0.93838,2.3459 3.08324,2.3459 0.33514,0 0.93838,0 1.67568,0 l 2.21189,0 0,20.9795 -5.76432,0 c -1.80973,0 -2.74811,0.7373 -2.74811,2.2789 0,1.5416 0.93838,2.346 2.68108,2.346 l 21.38162,0 c 1.94378,0 2.68108,-0.4692 2.68108,-2.346 0,-1.6086 -0.80432,-2.2789 -2.48,-2.2789 l -10.85838,0 z"
         style="fill:#4d4d4d"
         id="path5693"
         inkscape:connector-curvature="0" />
      <path
         d="m 192.4917,1021.8385 c 0,-9.0487 -6.7027,-15.8854 -17.09189,-15.8854 -10.38919,0 -17.15892,6.7697 -17.15892,15.8854 0,9.1157 6.76973,15.8854 17.15892,15.8854 10.38919,0 17.09189,-6.7697 17.09189,-15.8854 z m -17.09189,11.3275 c -6.76973,0 -11.46162,-4.8259 -11.46162,-11.3275 0,-6.5016 4.69189,-11.3946 11.46162,-11.3946 6.76973,0 11.46162,4.893 11.46162,11.3946 0,6.5686 -4.69189,11.3275 -11.46162,11.3275 z"
         style="fill:#4d4d4d"
         id="path5695"
         inkscape:connector-curvature="0" />
      <path
         d="m 215.45264,1020.2969 4.35676,14.88 c 0.60324,2.0108 1.27351,2.8821 3.21729,2.8821 1.54162,0 2.27892,-0.6032 2.74811,-2.2119 l 7.37297,-24.5319 c 2.07784,0 2.81514,-0.6032 2.81514,-2.3459 0,-1.5416 -0.7373,-2.2789 -2.01081,-2.2789 l -8.78054,0 c -2.07784,0 -2.88216,0.4021 -2.88216,2.2789 0,1.9438 1.07243,2.413 3.82054,2.413 0.67027,0 1.40756,0 2.27891,-0.067 l -5.49621,19.639 -4.08865,-13.6065 c -0.60324,-2.0108 -1.27351,-2.8822 -3.2173,-2.8822 -1.54162,0 -2.27892,0.6703 -2.7481,2.2119 l -4.22271,14.2768 -5.63027,-19.639 c 0.80433,0.067 1.4746,0.067 2.14487,0.067 2.88216,0 4.02162,-0.4692 4.02162,-2.413 0,-1.9438 -0.87135,-2.2789 -2.94919,-2.2789 l -8.78054,0 c -1.67568,0 -2.48,0.8043 -2.48,2.2789 0,1.7427 0.80432,2.3459 2.88216,2.3459 l 7.50703,23.8617 c 0.60324,2.0108 1.27351,2.8821 3.2173,2.8821 1.47459,0 2.34594,-0.6703 2.7481,-2.2119 l 4.15568,-15.5502 z"
         style="fill:#4d4d4d"
         id="path5697"
         inkscape:connector-curvature="0" />
      <path
         d="m 241.69792,1034.5736 c 0,2.0778 0.87135,3.1503 2.41297,3.1503 0.7373,0 1.80973,-0.5362 3.35135,-1.5416 3.68649,0.9383 6.97081,1.4746 9.92,1.4746 8.1773,0 12.80216,-4.0887 12.80216,-9.719 0,-6.4346 -4.49081,-8.9816 -13.13729,-9.1827 -6.4346,-0.134 -10.18811,-0.4692 -10.18811,-3.9546 0,-2.614 2.48,-4.8259 6.83675,-4.8259 3.41838,0 5.83136,0.8043 8.31136,3.0162 1.94378,1.7427 2.61405,3.4184 4.08864,3.4184 1.60865,0 2.2119,-1.1395 2.2119,-3.2843 l 0,-3.8206 c 0,-2.2119 -0.7373,-3.2843 -2.2119,-3.2843 -1.7427,0 -2.41297,1.2735 -3.35135,1.2735 -0.93838,0 -3.55243,-1.4746 -8.31135,-1.4746 -8.11027,0 -12.60108,3.7535 -12.60108,9.1827 0,5.8314 4.75892,9.0487 13.67351,9.0487 0.93838,0 1.54163,0 1.87676,0 4.96,0 7.37297,0.9383 7.37297,4.2897 0,2.9492 -2.94919,5.0941 -7.7081,5.0941 -4.42379,0 -8.1773,-1.6087 -9.92,-3.8876 -1.27352,-1.6757 -1.07244,-3.4854 -3.08325,-3.4854 -1.7427,0 -2.34594,0.9384 -2.34594,2.6811 l 0,5.8313 z"
         style="fill:#4d4d4d"
         id="path5699"
         inkscape:connector-curvature="0" />
      <path
         d="m 303.80262,1032.7639 0.33514,2.0108 c 0.26811,1.4076 1.07243,2.1449 2.27892,2.1449 l 5.16108,0 c 1.7427,0 2.61405,-0.8044 2.61405,-2.346 0,-1.9438 -1.13946,-2.2789 -3.88757,-2.2789 l -1.67567,0 0,-14.813 c 0,-7.9092 -3.88757,-11.5957 -12.26595,-11.5957 -7.37297,0 -12.19891,2.346 -12.19891,4.6249 0,1.6757 1.0054,2.7481 2.21189,2.7481 2.54702,0 5.2281,-2.7481 9.85297,-2.7481 5.02703,0 7.37297,2.346 7.37297,7.373 0,0.067 0,0.134 0,0.2011 -2.68108,-0.6703 -5.22811,-1.0054 -7.77513,-1.0054 -9.71892,0 -15.14811,4.0886 -15.14811,10.8583 0,5.7644 4.28973,9.786 10.85838,9.786 4.49081,0 8.71351,-1.7427 12.26594,-4.96 z m -0.20108,-10.3222 0,3.5525 c 0,2.9491 -5.36216,6.7027 -11.26054,6.7027 -3.82054,0 -6.43459,-2.2119 -6.43459,-5.0941 0,-3.6865 3.82054,-6.3005 10.79135,-6.3005 2.41297,0 4.69189,0.4021 6.90378,1.1394 z"
         style="fill:#00d000;fill-opacity:1"
         id="path5701"
         inkscape:connector-curvature="0" />
      <path
         d="m 328.23817,1011.3823 0,-15.95247 c 0,-0.93838 -0.60324,-1.34054 -1.87675,-1.34054 l -4.96,0 c -1.74271,0 -2.61406,0.80432 -2.61406,2.34594 0,1.67568 0.93838,2.27892 3.01622,2.27892 0.46919,0 1.0054,0.067 1.47459,0.067 l 0,33.51355 c -0.26811,0 -0.46919,0 -0.67027,0 -2.68108,0 -3.82054,0.4022 -3.82054,2.2789 0,1.5416 0.87135,2.346 2.61406,2.346 l 5.9654,0 c 1.00541,0 1.34054,-0.5363 1.34054,-1.6757 l 0,-2.6141 c 2.21189,3.2844 5.63027,4.893 10.18811,4.893 8.78054,0 15.48324,-6.9038 15.48324,-15.4162 0,-8.6465 -6.56865,-15.4162 -15.34919,-15.4162 -4.62486,0 -8.31135,1.6086 -10.79135,4.6919 z m 10.18811,20.9794 c -6.09946,0 -10.32216,-4.4238 -10.32216,-10.4562 0,-6.0995 4.28973,-10.4562 10.32216,-10.4562 6.09946,0 10.32216,4.4908 10.32216,10.4562 0,6.2335 -4.2227,10.4562 -10.32216,10.4562 z"
         style="fill:#00d000;fill-opacity:1"
         id="path5703"
         inkscape:connector-curvature="0" />
      <path
         d="m 380.02075,1032.2947 0,-24.2638 c 0,-0.8043 -0.60325,-1.3405 -1.87676,-1.3405 l -9.58486,0 c -1.74271,0 -2.61406,0.7373 -2.61406,2.2789 0,1.5416 0.93838,2.3459 2.74811,2.3459 l 6.36757,0 0,20.9795 -9.98703,0 c -1.80973,0 -2.74811,0.7373 -2.74811,2.2789 0,1.5416 0.87135,2.346 2.61406,2.346 l 25.40324,0 c 1.94378,0 2.68108,-0.4692 2.68108,-2.346 0,-1.6086 -0.80433,-2.2789 -2.48,-2.2789 l -10.52324,0 z m -6.09946,-35.05514 c 0,2.68108 0.67027,3.21734 3.41838,3.21734 3.15027,0 3.35135,-0.73734 3.35135,-4.15572 0,-3.41838 -0.33514,-4.42378 -3.35135,-4.42378 -3.01622,0 -3.41838,1.0054 -3.41838,5.36216 z"
         style="fill:#00d000;fill-opacity:1"
         id="path5705"
         inkscape:connector-curvature="0" />
      <path
         d="m 415.11356,998.78118 0,33.51352 -9.04865,0 c -1.80973,0 -2.7481,0.7373 -2.7481,2.2789 0,1.5416 0.87135,2.346 2.61405,2.346 l 24.12973,0 c 1.94378,0 2.68108,-0.4692 2.68108,-2.346 0,-1.6086 -0.80433,-2.2789 -2.48,-2.2789 l -10.18811,0 0,-36.86487 c 0,-0.80433 -0.60324,-1.34054 -1.87676,-1.34054 l -10.79135,0 c -1.7427,0 -2.61405,0.80432 -2.61405,2.34594 0,1.67568 0.93838,2.27892 3.08324,2.27892 0.33514,0 0.93838,0.067 1.67568,0.067 l 5.56324,0 z"
         style="fill:#00d000;fill-opacity:1"
         id="path5707"
         inkscape:connector-curvature="0" />
      <path
         d="m 460.66262,1032.2947 0,-24.2638 c 0,-0.8043 -0.60324,-1.3405 -1.87675,-1.3405 l -9.58487,0 c -1.7427,0 -2.61405,0.7373 -2.61405,2.2789 0,1.5416 0.93838,2.3459 2.74811,2.3459 l 6.36756,0 0,20.9795 -9.98702,0 c -1.80973,0 -2.74811,0.7373 -2.74811,2.2789 0,1.5416 0.87135,2.346 2.61405,2.346 l 25.40324,0 c 1.94379,0 2.68109,-0.4692 2.68109,-2.346 0,-1.6086 -0.80433,-2.2789 -2.48,-2.2789 l -10.52325,0 z m -6.09946,-35.05514 c 0,2.68108 0.67027,3.21734 3.41838,3.21734 3.15027,0 3.35135,-0.73734 3.35135,-4.15572 0,-3.41838 -0.33513,-4.42378 -3.35135,-4.42378 -3.01621,0 -3.41838,1.0054 -3.41838,5.36216 z"
         style="fill:#00d000;fill-opacity:1"
         id="path5709"
         inkscape:connector-curvature="0" />
      <path
         d="m 506.88195,1008.5001 -12.86918,0 0,-6.6357 c 0,-3.21727 -0.26811,-4.55782 -2.61406,-4.55782 -1.7427,0 -2.54703,0.93838 -2.54703,2.74812 0,0.8713 0,1.4746 0,1.7427 l 0,6.7027 -3.61945,0 c -3.15027,0 -4.49082,0.2011 -4.49082,2.3459 0,1.6087 0.80433,2.279 2.61406,2.279 l 5.49621,0 0,10.9254 c 0,0.3351 0,0.6702 0,1.0054 0,3.0162 0.067,5.6302 1.20649,7.574 1.87676,3.2844 5.36216,4.893 10.38919,4.893 3.08324,0 6.50162,-0.8714 10.59027,-2.48 2.41297,-0.9384 3.61946,-1.8768 3.61946,-3.4184 0,-1.2065 -1.07243,-2.3459 -2.27892,-2.3459 -2.61405,0 -6.97081,3.4854 -12.26595,3.4854 -5.76432,0 -6.16648,-3.4854 -6.16648,-8.7135 l 0,-10.9254 13.27135,0 c 1.80973,0 2.74811,-0.7373 2.74811,-2.279 0,-1.6756 -1.00541,-2.3459 -3.08325,-2.3459 z"
         style="fill:#00d000;fill-opacity:1"
         id="path5711"
         inkscape:connector-curvature="0" />
      <path
         d="m 535.80828,1045.2979 17.22595,-33.9827 c 2.27892,-0.067 3.28432,-0.6032 3.28432,-2.3459 0,-1.5416 -0.87135,-2.2789 -2.61405,-2.2789 l -8.11027,0 c -2.14487,0 -3.08324,0.3351 -3.08324,2.2789 0,1.8767 1.13945,2.3459 3.95459,2.3459 0.40216,0 0.80432,0 1.27351,0 l -9.11567,18.0303 -8.78054,-18.0303 c 0.40216,0 0.80432,0 1.20648,0 2.68109,0 3.82054,-0.4692 3.82054,-2.3459 0,-1.9438 -0.93837,-2.2789 -3.08324,-2.2789 l -9.11567,0 c -1.74271,0 -2.61406,0.7373 -2.61406,2.2789 0,1.8767 1.07243,2.3459 3.75352,2.3459 l 11.99783,23.5265 -5.36216,10.4562 -7.10486,0 c -1.67568,0 -2.48,0.8044 -2.48,2.346 0,1.8097 0.80432,2.3459 2.7481,2.3459 l 15.01406,0 c 1.7427,0 2.68108,-0.8043 2.68108,-2.3459 0,-1.9438 -1.20649,-2.346 -4.08865,-2.346 -0.40216,0 -0.87135,0 -1.40757,0 z"
         style="fill:#00d000;fill-opacity:1"
         id="path5713"
         inkscape:connector-curvature="0" />
    </g>
  </g>
</svg>
